<svg width="24" height="24" viewBox="0 0 24 24" fill="none" xmlns="http://www.w3.org/2000/svg">
<path d="M12.058 20C9.83598 20 7.94698 19.222 6.39098 17.666C4.83498 16.11 4.05732 14.2213 4.05798 12C4.05798 10.3533 4.52898 8.84165 5.47098 7.46499C6.41365 6.08699 7.75032 5.09599 9.48098 4.49199C9.68498 4.42065 9.86365 4.40199 10.017 4.43599C10.1703 4.46999 10.2973 4.53632 10.398 4.63499C10.4987 4.73365 10.5627 4.86032 10.59 5.01499C10.6167 5.17032 10.5957 5.33332 10.527 5.50399C10.3977 5.82199 10.3037 6.14399 10.245 6.46999C10.1863 6.79599 10.1573 7.13932 10.158 7.49999C10.158 9.27799 10.78 10.789 12.024 12.033C13.268 13.277 14.7793 13.8993 16.558 13.9C17.0233 13.9 17.449 13.8507 17.835 13.752C18.2216 13.6533 18.551 13.5733 18.823 13.512C18.9683 13.4853 19.1013 13.4887 19.222 13.522C19.3427 13.5553 19.439 13.614 19.511 13.698C19.5897 13.7813 19.643 13.884 19.671 14.006C19.6976 14.128 19.6816 14.267 19.623 14.423C19.1463 16.0563 18.212 17.394 16.82 18.436C15.428 19.478 13.8407 19.9993 12.058 20ZM12.058 19C13.5247 19 14.8413 18.5957 16.008 17.787C17.1746 16.9783 18.0247 15.9243 18.558 14.625C18.2247 14.7083 17.8913 14.775 17.558 14.825C17.2247 14.875 16.8913 14.9 16.558 14.9C14.508 14.9 12.762 14.1793 11.32 12.738C9.87798 11.2967 9.15732 9.55065 9.15798 7.49999C9.15798 7.16665 9.18298 6.83332 9.23298 6.49999C9.28298 6.16665 9.34965 5.83332 9.43298 5.49999C8.13298 6.03332 7.07865 6.88332 6.26998 8.04999C5.46132 9.21665 5.05732 10.5333 5.05798 12C5.05798 13.9333 5.74132 15.5833 7.10798 16.95C8.47465 18.3167 10.1247 19 12.058 19Z" fill="black"/>
</svg>
