<svg width="53" height="51" viewBox="0 0 53 51" fill="none" xmlns="http://www.w3.org/2000/svg">
<path fill-rule="evenodd" clip-rule="evenodd" d="M7.5 15C11.6421 15 15 11.6421 15 7.5C15 3.35786 11.6421 0 7.5 0C3.35786 0 0 3.35786 0 7.5C0 11.6421 3.35786 15 7.5 15ZM26.5 27C30.6421 27 34 23.6421 34 19.5C34 15.3579 30.6421 12 26.5 12C22.3579 12 19 15.3579 19 19.5C19 23.6421 22.3579 27 26.5 27ZM53 7.5C53 11.6421 49.6421 15 45.5 15C41.3579 15 38 11.6421 38 7.5C38 3.35786 41.3579 0 45.5 0C49.6421 0 53 3.35786 53 7.5ZM26.5 51C30.6421 51 34 47.6421 34 43.5C34 39.3579 30.6421 36 26.5 36C22.3579 36 19 39.3579 19 43.5C19 47.6421 22.3579 51 26.5 51ZM53 32.5C53 36.6421 49.6421 40 45.5 40C41.3579 40 38 36.6421 38 32.5C38 28.3579 41.3579 25 45.5 25C49.6421 25 53 28.3579 53 32.5ZM7.5 40C11.6421 40 15 36.6421 15 32.5C15 28.3579 11.6421 25 7.5 25C3.35786 25 0 28.3579 0 32.5C0 36.6421 3.35786 40 7.5 40Z" fill="#9B9B9B"/>
</svg>
